# WaveFront *.obj file (generated by Autodesk ATF)

mtllib Tail Fin.mtl

g Body1

v -3.000000 -0.000000 0.000000
v -2.897777 0.776457 0.000000
v -2.598076 1.500000 0.000000
v -2.121320 2.121320 0.000000
v -1.500000 2.598076 0.000000
v -0.776457 2.897777 0.000000
v 0.000000 3.000000 0.000000
v 0.776457 2.897777 0.000000
v 1.500000 2.598076 0.000000
v 2.121320 2.121320 0.000000
v 2.598076 1.500000 0.000000
v 2.897777 0.776457 0.000000
v 3.000000 0.000000 0.000000
v 2.897777 -0.776457 0.000000
v 2.598076 -1.500000 0.000000
v 2.121320 -2.121320 0.000000
v 1.500000 -2.598076 0.000000
v 0.776457 -2.897777 0.000000
v 0.000000 -3.000000 0.000000
v -0.776457 -2.897777 0.000000
v -1.500000 -2.598076 0.000000
v -2.121320 -2.121320 0.000000
v -2.598076 -1.500000 0.000000
v -2.897777 -0.776457 0.000000
v 0.000000 3.000000 16.731969
v 0.776457 2.897777 16.365125
v 1.500000 2.598076 16.023281
v 2.121320 2.121320 15.729733
v 2.598076 1.500000 15.504485
v 2.897777 0.776457 15.362889
v 3.000000 -0.000000 15.314593
v 2.897777 -0.776457 15.362889
v 2.598076 -1.500000 15.504485
v 2.121320 -2.121320 15.729733
v 1.500000 -2.598076 16.023281
v 0.776457 -2.897777 16.365125
v -0.000000 -3.000000 16.731969
v -0.776457 -2.897777 17.098813
v -1.500000 -2.598076 17.440658
v -2.121320 -2.121320 17.734206
v -2.598076 -1.500000 17.959454
v -2.897777 -0.776457 18.101050
v -3.000000 0.000000 18.149346
v -2.897777 0.776457 18.101050
v -2.598076 1.500000 17.959454
v -2.121320 2.121320 17.734206
v -1.500000 2.598076 17.440658
v -0.776457 2.897777 17.098813
v -3.000000 -0.000000 9.074673
v 0.000000 3.000000 9.074673
v 0.776457 2.897777 9.074673
v 1.500000 2.598076 9.074673
v 2.121320 2.121320 9.074673
v 2.598076 1.500000 9.074673
v 2.897777 0.776457 9.074673
v 3.000000 -0.000000 9.074673
v 2.897777 -0.776457 9.074673
v 2.598076 -1.500000 9.074673
v 2.121320 -2.121320 9.074673
v 1.500000 -2.598076 9.074673
v 0.776457 -2.897777 9.074673
v -0.000000 -3.000000 9.074673
v -0.776457 -2.897777 9.074673
v -1.500000 -2.598076 9.074673
v -2.121320 -2.121320 9.074673
v -2.598076 -1.500000 9.074673
v -2.897777 -0.776457 9.074673
v -2.897777 0.776457 9.074673
v -2.598076 1.500000 9.074673
v -2.121320 2.121320 9.074673
v -1.500000 2.598076 9.074673
v -0.776457 2.897777 9.074673
v -7.393388 -3.000000 20.225041
v -14.786775 -3.000000 23.718113
v -17.500000 -0.000000 25.000000
v -14.786775 3.000000 23.718113
v -7.393388 3.000000 20.225041
v 6.250000 3.000000 13.779101
v 12.500000 3.000000 10.826233
v 12.500000 -3.000000 10.826233
v 6.250000 -3.000000 13.779101
v -7.500000 -0.000000 47.500000
v -6.161252 3.000000 43.125540
v -10.474014 3.000000 33.421826
v -14.166667 -0.000000 32.500000
v -10.833333 -0.000000 40.000000
v -0.833333 -0.000000 43.333333
v 5.833333 -0.000000 39.166667
v 12.500000 -0.000000 35.000000
v 12.500000 3.000000 31.462257
v 3.169374 3.000000 37.293898
v -10.474014 -3.000000 33.421826
v -6.161252 -3.000000 43.125540
v 3.169374 -3.000000 37.293898
v 12.500000 -3.000000 31.462257
v 12.500000 -3.000000 21.144245
v 12.500000 3.000000 21.144245
v -5.691183 -3.000000 32.359104
v -5.691183 -3.000000 21.592669
v 3.404408 -3.000000 21.592669
v 3.404408 -3.000000 32.359104
v -5.691183 3.000000 32.359104
v -5.691183 3.000000 21.592669
v 3.404408 3.000000 32.359104
v 3.404408 3.000000 21.592669
vt 2.897777 0.776457 0.000000
vt -2.897777 0.776457 0.000000
vt 3.000000 -0.000000 0.000000
vt -3.000000 0.000000 0.000000
vt 2.897777 -0.776457 0.000000
vt -2.897777 -0.776457 0.000000
vt 2.598076 -1.500000 0.000000
vt -2.598076 -1.500000 0.000000
vt 2.121320 -2.121320 0.000000
vt -2.121320 -2.121320 0.000000
vt 1.500000 -2.598076 0.000000
vt -1.500000 -2.598076 0.000000
vt 0.776457 -2.897777 0.000000
vt -0.776457 -2.897777 0.000000
vt -0.000000 -3.000000 0.000000
vt -2.598076 1.500000 0.000000
vt 2.598076 1.500000 0.000000
vt -2.121320 2.121320 0.000000
vt 2.121320 2.121320 0.000000
vt -1.500000 2.598076 0.000000
vt 1.500000 2.598076 0.000000
vt -0.776457 2.897777 0.000000
vt 0.776457 2.897777 0.000000
vt -0.000000 3.000000 0.000000
vt -31.365125 3.926991 0.000000
vt -24.074673 4.712389 0.000000
vt -31.731969 4.712389 0.000000
vt -24.074673 5.497787 0.000000
vt -32.098813 5.497787 0.000000
vt -24.074673 6.283185 0.000000
vt -32.440658 6.283185 0.000000
vt -24.074673 7.068583 0.000000
vt -32.734206 7.068583 0.000000
vt -24.074673 7.853982 0.000000
vt -32.959454 7.853982 0.000000
vt -24.074673 8.639380 0.000000
vt -33.101050 8.639380 0.000000
vt -24.074673 9.424778 0.000000
vt -33.149346 9.424778 0.000000
vt -33.149346 -9.424778 0.000000
vt -24.074673 -9.424778 0.000000
vt -33.101050 -8.639380 0.000000
vt -24.074673 -8.639380 0.000000
vt -32.959454 -7.853982 0.000000
vt -24.074673 -7.853982 0.000000
vt -32.734206 -7.068583 0.000000
vt -24.074673 -7.068583 0.000000
vt -32.440658 -6.283185 0.000000
vt -24.074673 -6.283185 0.000000
vt -32.098813 -5.497787 0.000000
vt -24.074673 -5.497787 0.000000
vt -31.731969 -4.712389 0.000000
vt -24.074673 -4.712389 0.000000
vt -31.365125 -3.926991 0.000000
vt -24.074673 -3.926991 0.000000
vt -31.023281 -3.141593 0.000000
vt -24.074673 -3.141593 0.000000
vt -30.729733 -2.356194 0.000000
vt -24.074673 -2.356194 0.000000
vt -30.504485 -1.570796 0.000000
vt -24.074673 -1.570796 0.000000
vt -30.362889 -0.785398 0.000000
vt -24.074673 -0.785398 0.000000
vt -30.314593 -0.000000 0.000000
vt -24.074673 -0.000000 0.000000
vt -24.074673 0.785398 0.000000
vt -15.000000 0.000000 0.000000
vt -15.000000 0.785398 0.000000
vt -24.074673 3.926991 0.000000
vt -31.023281 3.141593 0.000000
vt -24.074673 3.141593 0.000000
vt -30.729733 2.356194 0.000000
vt -24.074673 2.356194 0.000000
vt -30.504485 1.570796 0.000000
vt -24.074673 1.570796 0.000000
vt -30.362889 0.785398 0.000000
vt -15.000000 -8.639380 0.000000
vt -15.000000 -9.424778 0.000000
vt -15.000000 9.424778 0.000000
vt -15.000000 8.639380 0.000000
vt -15.000000 7.853982 0.000000
vt -15.000000 7.068583 0.000000
vt -15.000000 6.283185 0.000000
vt -15.000000 5.497787 0.000000
vt -15.000000 4.712389 0.000000
vt -15.000000 3.926991 0.000000
vt -15.000000 3.141593 0.000000
vt -15.000000 2.356194 0.000000
vt -15.000000 1.570796 0.000000
vt -15.000000 -7.853982 0.000000
vt -15.000000 -7.068583 0.000000
vt -15.000000 -6.283185 0.000000
vt -15.000000 -5.497787 0.000000
vt -15.000000 -4.712389 0.000000
vt -15.000000 -3.926991 0.000000
vt -15.000000 -3.141593 0.000000
vt -15.000000 -2.356194 0.000000
vt -15.000000 -1.570796 0.000000
vt -15.000000 -0.785398 0.000000
vt 19.354853 -3.000000 0.000000
vt 18.496098 -2.897777 0.000000
vt 11.177828 -3.000000 0.000000
vt 17.695866 -2.598076 0.000000
vt 17.008690 -2.121320 0.000000
vt 16.481402 -1.500000 0.000000
vt 16.149935 -0.776457 0.000000
vt 16.036878 -0.000000 0.000000
vt 11.177828 3.000000 0.000000
vt 16.149935 0.776457 0.000000
vt 16.481402 1.500000 0.000000
vt 17.008690 2.121320 0.000000
vt 17.695866 2.598076 0.000000
vt 18.496098 2.897777 0.000000
vt 19.354853 3.000000 0.000000
vt 3.000804 3.000000 0.000000
vt 3.000804 -3.000000 0.000000
vt -0.000000 -0.000000 0.000000
vt 20.213608 2.897777 0.000000
vt 26.267300 3.000000 0.000000
vt 21.013840 2.598076 0.000000
vt 21.701015 2.121320 0.000000
vt 22.228303 1.500000 0.000000
vt 22.559770 0.776457 0.000000
vt 22.672828 -0.000000 0.000000
vt 26.267300 -3.000000 0.000000
vt 22.559770 -0.776457 0.000000
vt 22.228303 -1.500000 0.000000
vt 21.701015 -2.121320 0.000000
vt 21.013840 -2.598076 0.000000
vt 20.213608 -2.897777 0.000000
vt 19.354853 -3.000000 0.000000
vt 33.179748 -3.000000 0.000000
vt 33.179748 3.000000 0.000000
vt 7.362882 -2.121320 0.000000
vt 3.909166 2.121320 0.000000
vt -0.844500 -2.121320 0.000000
vt -6.709777 2.121320 0.000000
vt -9.051881 -2.121320 0.000000
vt -17.328721 2.121320 0.000000
vt -17.259263 -2.121320 0.000000
vt -18.771737 -2.121320 0.000000
vt -10.910086 -2.121320 0.000000
vt -15.318021 2.121320 0.000000
vt -4.314902 2.121320 0.000000
vt -3.048435 -2.121320 0.000000
vt 4.813216 -2.121320 0.000000
vt 6.688216 2.121320 0.000000
vt -17.259263 2.121320 0.000000
vt -17.328721 -2.121320 0.000000
vt -9.051881 2.121320 0.000000
vt -6.709777 -2.121320 0.000000
vt -0.844500 2.121320 0.000000
vt 3.909166 -2.121320 0.000000
vt 7.362882 2.121320 0.000000
vt -18.771737 2.121320 0.000000
vt -15.318021 -2.121320 0.000000
vt -10.910086 2.121320 0.000000
vt -4.314902 -2.121320 0.000000
vt -3.048435 2.121320 0.000000
vt 4.813216 2.121320 0.000000
vt 6.688216 -2.121320 0.000000
vt 24.173767 -0.000000 0.000000
vt 20.636024 3.000000 0.000000
vt 20.636024 -3.000000 0.000000
vt 10.318012 3.000000 0.000000
vt 10.318012 -3.000000 0.000000
vt -0.000000 3.000000 0.000000
vt 0.000000 -3.000000 0.000000
vt -8.130782 5.669374 0.000000
vt -13.962423 -3.661252 0.000000
vt -3.195988 -3.191183 0.000000
vt -4.258710 -7.974014 0.000000
vt 7.570448 -3.191183 0.000000
vt 5.445004 -12.286775 0.000000
vt 8.938076 -4.893388 0.000000
vt 12.431147 2.500000 0.000000
vt 7.570448 5.904408 0.000000
vt -3.195988 5.904408 0.000000
vt -2.299141 15.000000 0.000000
vt 15.384015 8.750000 0.000000
vt 8.018871 15.000000 0.000000
vt 18.336883 15.000000 0.000000
vt -8.938076 -4.893388 0.000000
vt -5.445004 -12.286775 0.000000
vt -7.570448 -3.191183 0.000000
vt 4.258710 -7.974014 0.000000
vt 3.195988 -3.191183 0.000000
vt 13.962423 -3.661252 0.000000
vt 8.130782 5.669374 0.000000
vt 3.195988 5.904408 0.000000
vt 2.299141 15.000000 0.000000
vt -7.570448 5.904408 0.000000
vt -8.018871 15.000000 0.000000
vt -15.384015 8.750000 0.000000
vt -18.336883 15.000000 0.000000
vt -12.431147 2.500000 0.000000
vn -0.000000 -0.000000 -1.000000
vn -0.000000 -0.000000 -1.000000
vn -0.000000 -0.000000 -1.000000
vn -0.000000 -0.000000 -1.000000
vn -0.000000 -0.000000 -1.000000
vn -0.000000 -0.000000 -1.000000
vn -0.000000 -0.000000 -1.000000
vn -0.000000 -0.000000 -1.000000
vn -0.000000 -0.000000 -1.000000
vn -0.000000 -0.000000 -1.000000
vn -0.000000 -0.000000 -1.000000
vn -0.000000 -0.000000 -1.000000
vn -0.000000 -0.000000 -1.000000
vn -0.000000 -0.000000 -1.000000
vn -0.000000 -0.000000 -1.000000
vn -0.000000 -0.000000 -1.000000
vn -0.000000 -0.000000 -1.000000
vn -0.000000 -0.000000 -1.000000
vn -0.000000 -0.000000 -1.000000
vn -0.000000 -0.000000 -1.000000
vn -0.000000 -0.000000 -1.000000
vn -0.000000 -0.000000 -1.000000
vn -0.000000 -0.000000 -1.000000
vn -0.000000 -0.000000 -1.000000
vn 0.258819 0.965926 -0.000000
vn 0.000000 1.000000 -0.000000
vn 0.000000 1.000000 -0.000000
vn -0.258819 0.965926 -0.000000
vn -0.258819 0.965926 -0.000000
vn -0.500000 0.866025 -0.000000
vn -0.500000 0.866025 -0.000000
vn -0.707107 0.707107 -0.000000
vn -0.707107 0.707107 -0.000000
vn -0.866025 0.500000 -0.000000
vn -0.866025 0.500000 -0.000000
vn -0.965926 0.258819 -0.000000
vn -0.965926 0.258819 -0.000000
vn -1.000000 0.000000 -0.000000
vn -1.000000 0.000000 -0.000000
vn -0.965926 -0.258819 0.000000
vn -0.965926 -0.258819 0.000000
vn -0.866025 -0.500000 0.000000
vn -0.866025 -0.500000 0.000000
vn -0.707107 -0.707107 0.000000
vn -0.707107 -0.707107 0.000000
vn -0.500000 -0.866025 0.000000
vn -0.500000 -0.866025 0.000000
vn -0.258819 -0.965926 0.000000
vn -0.258819 -0.965926 0.000000
vn -0.000000 -1.000000 0.000000
vn -0.000000 -1.000000 0.000000
vn 0.258819 -0.965926 -0.000000
vn 0.258819 -0.965926 -0.000000
vn 0.500000 -0.866025 -0.000000
vn 0.500000 -0.866025 -0.000000
vn 0.707107 -0.707107 -0.000000
vn 0.707107 -0.707107 -0.000000
vn 0.866025 -0.500000 -0.000000
vn 0.866025 -0.500000 -0.000000
vn 0.965926 -0.258819 -0.000000
vn 0.965926 -0.258819 -0.000000
vn 1.000000 -0.000000 -0.000000
vn 1.000000 -0.000000 -0.000000
vn 0.965926 0.258819 -0.000000
vn 1.000000 -0.000000 -0.000000
vn 0.965926 0.258819 -0.000000
vn 0.258819 0.965926 -0.000000
vn 0.500000 0.866025 -0.000000
vn 0.500000 0.866025 -0.000000
vn 0.707107 0.707107 -0.000000
vn 0.707107 0.707107 -0.000000
vn 0.866025 0.500000 -0.000000
vn 0.866025 0.500000 -0.000000
vn 0.965926 0.258819 -0.000000
vn -0.965926 -0.258819 0.000000
vn -1.000000 -0.000000 0.000000
vn -0.965926 0.258819 -0.000000
vn -0.866025 0.500000 -0.000000
vn -0.707107 0.707107 -0.000000
vn -0.500000 0.866025 -0.000000
vn -0.258819 0.965926 -0.000000
vn 0.000000 1.000000 -0.000000
vn 0.258819 0.965926 -0.000000
vn 0.500000 0.866025 -0.000000
vn 0.707107 0.707107 -0.000000
vn 0.866025 0.500000 -0.000000
vn -0.866025 -0.500000 0.000000
vn -0.707107 -0.707107 0.000000
vn -0.500000 -0.866025 0.000000
vn -0.258819 -0.965926 0.000000
vn 0.000000 -1.000000 -0.000000
vn 0.258819 -0.965926 -0.000000
vn 0.500000 -0.866025 -0.000000
vn 0.707107 -0.707107 -0.000000
vn 0.866025 -0.500000 -0.000000
vn 0.965926 -0.258819 -0.000000
vn -0.427181 0.000000 -0.904166
vn -0.427181 0.000000 -0.904166
vn -0.427181 0.000000 -0.904166
vn -0.427181 0.000000 -0.904166
vn -0.427181 0.000000 -0.904166
vn -0.427181 0.000000 -0.904166
vn -0.427181 0.000000 -0.904166
vn -0.427181 0.000000 -0.904166
vn -0.427181 0.000000 -0.904166
vn -0.427181 0.000000 -0.904166
vn -0.427181 0.000000 -0.904166
vn -0.427181 0.000000 -0.904166
vn -0.427181 0.000000 -0.904166
vn -0.427181 0.000000 -0.904166
vn -0.427181 0.000000 -0.904166
vn -0.427181 0.000000 -0.904166
vn -0.427181 0.000000 -0.904166
vn -0.427181 0.000000 -0.904166
vn -0.427181 0.000000 -0.904166
vn -0.427181 0.000000 -0.904166
vn -0.427181 0.000000 -0.904166
vn -0.427181 0.000000 -0.904166
vn -0.427181 0.000000 -0.904166
vn -0.427181 0.000000 -0.904166
vn -0.427181 0.000000 -0.904166
vn -0.427181 0.000000 -0.904166
vn -0.427181 0.000000 -0.904166
vn -0.427181 0.000000 -0.904166
vn -0.427181 0.000000 -0.904166
vn -0.427181 0.000000 -0.904166
vn -0.427181 0.000000 -0.904166
vn -0.427181 0.000000 -0.904166
vn -0.427181 0.000000 -0.904166
vn -0.646162 0.707107 0.287183
vn -0.646162 0.707107 0.287183
vn -0.646162 0.707107 0.287183
vn -0.646162 0.707107 0.287183
vn -0.646162 0.707107 0.287183
vn -0.646162 0.707107 0.287183
vn -0.646162 0.707107 0.287183
vn 0.374766 0.707107 0.599625
vn 0.374766 0.707107 0.599625
vn 0.374766 0.707107 0.599625
vn 0.374766 0.707107 0.599625
vn 0.374766 0.707107 0.599625
vn 0.374766 0.707107 0.599625
vn 0.374766 0.707107 0.599625
vn -0.646162 -0.707107 0.287183
vn -0.646162 -0.707107 0.287183
vn -0.646162 -0.707107 0.287183
vn -0.646162 -0.707107 0.287183
vn -0.646162 -0.707107 0.287183
vn -0.646162 -0.707107 0.287183
vn -0.646162 -0.707107 0.287183
vn 0.374766 -0.707107 0.599625
vn 0.374766 -0.707107 0.599625
vn 0.374766 -0.707107 0.599625
vn 0.374766 -0.707107 0.599625
vn 0.374766 -0.707107 0.599625
vn 0.374766 -0.707107 0.599625
vn 0.374766 -0.707107 0.599625
vn 1.000000 -0.000000 -0.000000
vn 1.000000 -0.000000 -0.000000
vn 1.000000 -0.000000 -0.000000
vn 1.000000 -0.000000 -0.000000
vn 1.000000 -0.000000 -0.000000
vn 1.000000 -0.000000 -0.000000
vn 1.000000 -0.000000 -0.000000
vn -0.000000 -1.000000 0.000000
vn -0.000000 -1.000000 0.000000
vn -0.000000 -1.000000 0.000000
vn -0.000000 -1.000000 0.000000
vn -0.000000 -1.000000 0.000000
vn -0.000000 -1.000000 0.000000
vn -0.000000 -1.000000 0.000000
vn -0.000000 -1.000000 0.000000
vn -0.000000 -1.000000 0.000000
vn -0.000000 -1.000000 0.000000
vn -0.000000 -1.000000 0.000000
vn -0.000000 -1.000000 0.000000
vn -0.000000 -1.000000 0.000000
vn 0.000000 1.000000 0.000000
vn 0.000000 1.000000 0.000000
vn 0.000000 1.000000 0.000000
vn 0.000000 1.000000 0.000000
vn 0.000000 1.000000 0.000000
vn 0.000000 1.000000 0.000000
vn 0.000000 1.000000 0.000000
vn 0.000000 1.000000 0.000000
vn 0.000000 1.000000 0.000000
vn 0.000000 1.000000 0.000000
vn 0.000000 1.000000 0.000000
vn 0.000000 1.000000 0.000000
vn 0.000000 1.000000 0.000000
usemtl Steel_-_Satin
f 2/1/1 12/2/2 1/3/3
f 1/3/3 12/2/2 13/4/4
f 1/3/3 13/4/4 24/5/5
f 24/5/5 13/4/4 14/6/6
f 24/5/5 14/6/6 23/7/7
f 23/7/7 14/6/6 15/8/8
f 23/7/7 15/8/8 22/9/9
f 22/9/9 15/8/8 16/10/10
f 22/9/9 16/10/10 21/11/11
f 21/11/11 16/10/10 17/12/12
f 21/11/11 17/12/12 20/13/13
f 20/13/13 17/12/12 18/14/14
f 20/13/13 18/14/14 19/15/15
f 12/2/2 2/1/1 11/16/16
f 11/16/16 2/1/1 3/17/17
f 11/16/16 3/17/17 10/18/18
f 10/18/18 3/17/17 4/19/19
f 10/18/18 4/19/19 9/20/20
f 9/20/20 4/19/19 5/21/21
f 9/20/20 5/21/21 8/22/22
f 8/22/22 5/21/21 6/23/23
f 8/22/22 6/23/23 7/24/24
f 26/25/25 50/26/26 25/27/27
f 25/27/27 50/26/26 72/28/28
f 25/27/27 72/28/28 48/29/29
f 48/29/29 72/28/28 71/30/30
f 48/29/29 71/30/30 47/31/31
f 47/31/31 71/30/30 70/32/32
f 47/31/31 70/32/32 46/33/33
f 46/33/33 70/32/32 69/34/34
f 46/33/33 69/34/34 45/35/35
f 45/35/35 69/34/34 68/36/36
f 45/35/35 68/36/36 44/37/37
f 44/37/37 68/36/36 49/38/38
f 44/37/37 49/38/38 43/39/39
f 43/40/39 49/41/38 42/42/40
f 42/42/40 49/41/38 67/43/41
f 42/42/40 67/43/41 41/44/42
f 41/44/42 67/43/41 66/45/43
f 41/44/42 66/45/43 40/46/44
f 40/46/44 66/45/43 65/47/45
f 40/46/44 65/47/45 39/48/46
f 39/48/46 65/47/45 64/49/47
f 39/48/46 64/49/47 38/50/48
f 38/50/48 64/49/47 63/51/49
f 38/50/48 63/51/49 37/52/50
f 37/52/50 63/51/49 62/53/51
f 37/52/50 62/53/51 36/54/52
f 36/54/52 62/53/51 61/55/53
f 36/54/52 61/55/53 35/56/54
f 35/56/54 61/55/53 60/57/55
f 35/56/54 60/57/55 34/58/56
f 34/58/56 60/57/55 59/59/57
f 34/58/56 59/59/57 33/60/58
f 33/60/58 59/59/57 58/61/59
f 33/60/58 58/61/59 32/62/60
f 32/62/60 58/61/59 57/63/61
f 32/62/60 57/63/61 31/64/62
f 31/64/62 57/63/61 56/65/63
f 31/64/62 56/65/63 55/66/64
f 55/66/64 56/65/63 13/67/65
f 55/66/64 13/67/65 12/68/66
f 50/26/26 26/25/25 51/69/67
f 51/69/67 26/25/25 27/70/68
f 51/69/67 27/70/68 52/71/69
f 52/71/69 27/70/68 28/72/70
f 52/71/69 28/72/70 53/73/71
f 53/73/71 28/72/70 29/74/72
f 53/73/71 29/74/72 54/75/73
f 54/75/73 29/74/72 30/76/74
f 54/75/73 30/76/74 55/66/64
f 55/66/64 30/76/74 31/64/62
f 24/77/75 67/43/41 1/78/76
f 1/78/76 67/43/41 49/41/38
f 1/79/76 49/38/38 2/80/77
f 2/80/77 49/38/38 68/36/36
f 2/80/77 68/36/36 3/81/78
f 3/81/78 68/36/36 69/34/34
f 3/81/78 69/34/34 4/82/79
f 4/82/79 69/34/34 70/32/32
f 4/82/79 70/32/32 5/83/80
f 5/83/80 70/32/32 71/30/30
f 5/83/80 71/30/30 6/84/81
f 6/84/81 71/30/30 72/28/28
f 6/84/81 72/28/28 7/85/82
f 7/85/82 72/28/28 50/26/26
f 7/85/82 50/26/26 8/86/83
f 8/86/83 50/26/26 51/69/67
f 8/86/83 51/69/67 9/87/84
f 9/87/84 51/69/67 52/71/69
f 9/87/84 52/71/69 10/88/85
f 10/88/85 52/71/69 53/73/71
f 10/88/85 53/73/71 11/89/86
f 11/89/86 53/73/71 54/75/73
f 11/89/86 54/75/73 12/68/66
f 12/68/66 54/75/73 55/66/64
f 67/43/41 24/77/75 66/45/43
f 66/45/43 24/77/75 23/90/87
f 66/45/43 23/90/87 65/47/45
f 65/47/45 23/90/87 22/91/88
f 65/47/45 22/91/88 64/49/47
f 64/49/47 22/91/88 21/92/89
f 64/49/47 21/92/89 63/51/49
f 63/51/49 21/92/89 20/93/90
f 63/51/49 20/93/90 62/53/51
f 62/53/51 20/93/90 19/94/91
f 62/53/51 19/94/91 61/55/53
f 61/55/53 19/94/91 18/95/92
f 61/55/53 18/95/92 60/57/55
f 60/57/55 18/95/92 17/96/93
f 60/57/55 17/96/93 59/59/57
f 59/59/57 17/96/93 16/97/94
f 59/59/57 16/97/94 58/61/59
f 58/61/59 16/97/94 15/98/95
f 58/61/59 15/98/95 57/63/61
f 57/63/61 15/98/95 14/99/96
f 57/63/61 14/99/96 56/65/63
f 56/65/63 14/99/96 13/67/65
f 25/100/97 48/101/98 77/102/99
f 77/102/99 48/101/98 47/103/100
f 77/102/99 47/103/100 46/104/101
f 46/104/101 45/105/102 77/102/99
f 77/102/99 45/105/102 44/106/103
f 77/102/99 44/106/103 43/107/104
f 77/102/99 43/107/104 73/108/105
f 73/108/105 43/107/104 42/109/106
f 73/108/105 42/109/106 41/110/107
f 41/110/107 40/111/108 73/108/105
f 73/108/105 40/111/108 39/112/109
f 73/108/105 39/112/109 38/113/110
f 38/113/110 37/114/111 73/108/105
f 73/108/105 74/115/112 77/102/99
f 77/102/99 74/115/112 76/116/113
f 76/116/113 74/115/112 75/117/114
f 37/114/111 36/118/115 81/119/116
f 81/119/116 36/118/115 35/120/117
f 81/119/116 35/120/117 34/121/118
f 34/121/118 33/122/119 81/119/116
f 81/119/116 33/122/119 32/123/120
f 81/119/116 32/123/120 31/124/121
f 81/119/116 31/124/121 78/125/122
f 78/125/122 31/124/121 30/126/123
f 78/125/122 30/126/123 29/127/124
f 29/127/124 28/128/125 78/125/122
f 78/125/122 28/128/125 27/129/126
f 78/125/122 27/129/126 26/130/127
f 26/130/127 25/131/97 78/125/122
f 78/125/122 79/132/128 81/119/116
f 81/119/116 79/132/128 80/133/129
f 82/134/130 83/135/131 86/136/132
f 86/136/132 83/135/131 84/137/133
f 86/136/132 84/137/133 85/138/134
f 85/138/134 84/137/133 76/139/135
f 85/138/134 76/139/135 75/140/136
f 82/141/137 87/142/138 83/143/139
f 83/143/139 87/142/138 91/144/140
f 91/144/140 87/142/138 88/145/141
f 91/144/140 88/145/141 89/146/142
f 89/146/142 90/147/143 91/144/140
f 75/148/144 74/149/145 85/150/146
f 85/150/146 74/149/145 92/151/147
f 85/150/146 92/151/147 86/152/148
f 86/152/148 92/151/147 93/153/149
f 86/152/148 93/153/149 82/154/150
f 82/155/151 93/156/152 87/157/153
f 87/157/153 93/156/152 94/158/154
f 87/157/153 94/158/154 88/159/155
f 88/159/155 94/158/154 89/160/156
f 89/160/156 94/158/154 95/161/157
f 89/162/158 95/163/159 90/164/160
f 90/164/160 95/163/159 96/165/161
f 90/164/160 96/165/161 97/166/162
f 97/166/162 96/165/161 80/167/163
f 97/166/162 80/167/163 79/168/164
f 94/169/165 93/170/166 98/171/167
f 98/171/167 93/170/166 92/172/168
f 98/171/167 92/172/168 99/173/169
f 99/173/169 92/172/168 74/174/170
f 99/173/169 74/174/170 73/175/171
f 73/175/171 37/176/50 99/173/169
f 99/173/169 37/176/50 100/177/172
f 99/173/169 100/177/172 101/178/173
f 101/178/173 100/177/172 95/179/174
f 101/178/173 95/179/174 94/169/165
f 37/176/50 81/180/175 100/177/172
f 100/177/172 81/180/175 96/181/176
f 100/177/172 96/181/176 95/179/174
f 81/180/175 80/182/177 96/181/176
f 101/178/173 94/169/165 98/171/167
f 101/178/173 98/171/167 99/173/169
f 77/183/178 76/184/179 103/185/180
f 103/185/180 76/184/179 84/186/181
f 103/185/180 84/186/181 102/187/182
f 102/187/182 84/186/181 83/188/183
f 102/187/182 83/188/183 91/189/184
f 102/187/182 91/189/184 104/190/185
f 104/190/185 91/189/184 90/191/186
f 104/190/185 90/191/186 105/192/187
f 105/192/187 90/191/186 97/193/188
f 105/192/187 97/193/188 78/194/189
f 78/194/189 97/193/188 79/195/190
f 78/194/189 25/196/27 105/192/187
f 105/192/187 25/196/27 103/185/180
f 105/192/187 103/185/180 102/187/182
f 25/196/27 77/183/178 103/185/180
f 104/190/185 105/192/187 102/187/182
# 105 vertices
# 196 texture params
# 190 normals
# 206 facets

# 1 groups
